<?xml version="1.0" standalone="no"?>
<!DOCTYPE svg PUBLIC "-//W3C//DTD SVG 1.1//EN" "http://www.w3.org/Graphics/SVG/1.1/DTD/svg11.dtd" >
<svg xmlns="http://www.w3.org/2000/svg">
<metadata></metadata>
<defs>
<font id="behatriceregular" horiz-adv-x="614" >
<font-face units-per-em="2048" ascent="1536" descent="-512" />
<missing-glyph horiz-adv-x="500" />
<glyph horiz-adv-x="0" />
<glyph unicode="&#xd;" />
<glyph unicode=" " />
<glyph unicode="A" horiz-adv-x="1267" d="M20 0q115 213 207 383q39 72 77 141.5t67.5 126t49 92t23.5 39.5q16 29 26.5 35t41.5 6h283l452 -823h-280l-49 94q-16 29 -27.5 35t-40.5 6h-383l76 148q16 27 26.5 34t40.5 7h185l-164 309l-328 -633h-283z" />
<glyph unicode="B" horiz-adv-x="1288" d="M82 0v823h768q51 0 95 -14t78 -41t53.5 -65.5t19.5 -88.5q0 -33 -7.5 -55t-17.5 -39q-10 -18 -22 -33q96 -31 144 -90t52 -137v-11q1 -51 -17 -95q-20 -48 -55.5 -81.5t-84 -53t-103.5 -19.5h-903zM334 184h579q33 0 54.5 22.5t21.5 53.5t-21.5 53.5t-54.5 22.5l-520 -2 l72 137q16 27 26.5 33t40.5 6h265q27 0 45 18.5t18 44.5q0 27 -18.5 45.5t-44.5 18.5h-410q-23 0 -38 -15.5t-15 -37.5v-400z" />
<glyph unicode="C" horiz-adv-x="1136" d="M41 412q0 92 27.5 168.5t84 130t143.5 83t206 29.5h573l-76 -145q-16 -27 -26 -33t-41 -6h-406q-45 0 -86 -9t-72.5 -34t-50 -70t-18.5 -114q0 -72 18.5 -116t50 -68.5t72.5 -33t86 -8.5h570l-76 -147q-16 -27 -26.5 -33t-41.5 -6h-450q-119 0 -206 29.5t-143.5 83 t-84 130t-27.5 169.5z" />
<glyph unicode="D" horiz-adv-x="1304" d="M82 0v823h723q236 0 347.5 -112.5t111.5 -298.5v-2q0 -186 -112 -298t-347 -112h-420l76 147q16 27 26.5 34t40.5 7h244q45 0 88 8.5t76 32t52.5 66.5t19.5 115v2q0 70 -19.5 113.5t-52.5 68t-75 34t-87 9.5h-387q-23 0 -37 -15.5t-14 -37.5v-584h-254z" />
<glyph unicode="E" horiz-adv-x="1091" d="M82 0v823h983l-76 -145q-16 -27 -26.5 -33t-40.5 -6h-535q-23 0 -38 -15.5t-15 -37.5v-86h586l-72 -138q-16 -27 -26.5 -32.5t-41.5 -5.5h-393q-23 0 -38 -15.5t-15 -38.5v-84v-186h-94h-158zM385 0l76 147q14 27 25.5 33t39.5 6h545l-76 -147q-16 -27 -27.5 -33 t-39.5 -6h-543z" />
<glyph unicode="F" horiz-adv-x="1071" d="M82 0v823h989l-76 -145q-14 -27 -25.5 -33t-41.5 -6h-543q-23 0 -37 -15.5t-14 -37.5v-586h-252zM383 324l72 137q16 27 26.5 33t40.5 6h377l-72 -138q-16 -27 -26 -32.5t-41 -5.5h-377z" />
<glyph unicode="G" horiz-adv-x="1257" d="M41 412q0 92 27.5 168.5t84 130t143.5 83t206 29.5h635l-76 -145q-16 -27 -27.5 -33t-40.5 -6h-467q-45 0 -86 -9t-72.5 -34t-50 -70t-18.5 -114q0 -72 18.5 -116t50 -68.5t72.5 -33t86 -8.5l435 2v136h-392l70 137q16 27 27.5 33t40.5 6h469v-447q0 -23 -14.5 -38 t-37.5 -15h-622q-119 0 -206 29.5t-143.5 83t-84 130t-27.5 169.5z" />
<glyph unicode="H" horiz-adv-x="1161" d="M82 0v823h252v-823h-252zM383 324l72 137q16 27 26.5 33t40.5 6h303v323h254v-823h-254v324h-442z" />
<glyph unicode="I" horiz-adv-x="417" d="M82 0v823h254v-823h-254z" />
<glyph unicode="J" horiz-adv-x="1003" d="M0 0l76 145q16 27 26.5 33t40.5 6h260q45 0 92.5 8.5t85 33t62.5 68.5t25 116v413h254v-411q0 -186 -113 -299t-348 -113h-461z" />
<glyph unicode="K" horiz-adv-x="1112" d="M82 0v823h252v-366l383 366h321l-444 -401l498 -422h-336l-422 365v-365h-252z" />
<glyph unicode="L" horiz-adv-x="1003" d="M82 412v411h252v-413q0 -72 24.5 -116t63.5 -68.5t86 -33t92 -8.5h404l-76 -145q-16 -27 -26.5 -33t-41.5 -6h-317q-119 0 -206 29.5t-143.5 83t-84 130t-27.5 169.5z" />
<glyph unicode="M" horiz-adv-x="1368" d="M82 0v772q0 23 14.5 37t36.5 14h326l225 -583q27 78 61.5 170t65.5 173t53.5 137t24.5 62q12 29 24.5 35t42.5 6h330v-823h-252v633l-225 -633h-240h-2v2l-233 631v-633h-252z" />
<glyph unicode="N" horiz-adv-x="1167" d="M82 0v772q0 23 15.5 37t37.5 14h324l375 -633v633h251v-770q0 -23 -15 -38t-38 -15h-323l-375 633v-633h-252z" />
<glyph unicode="O" horiz-adv-x="1081" d="M41 412q0 203 122 324.5t378 121.5t377.5 -122t121.5 -324q0 -100 -29.5 -183.5t-91 -141.5t-155.5 -90t-223 -32t-223.5 32t-156 90t-91 141t-29.5 184zM272 412q0 -84 22.5 -135.5t59.5 -80t85.5 -39t101.5 -10.5t101 10.5t85 39t59.5 80t22.5 135.5q0 82 -22.5 134 t-59.5 81.5t-85 40t-101 10.5t-101.5 -10.5t-85.5 -40t-59.5 -81.5t-22.5 -134z" />
<glyph unicode="P" horiz-adv-x="1200" d="M82 0v823h782q61 0 114.5 -23.5t93.5 -63.5t63.5 -93t23.5 -115q0 -61 -23.5 -115.5t-63.5 -94t-93 -63.5t-115 -24h-456l75 148q16 27 27.5 34t40.5 7h252q45 0 76.5 31.5t31.5 76.5t-31.5 77t-76.5 32h-418q-23 0 -37 -15.5t-14 -37.5v-584h-252z" />
<glyph unicode="Q" horiz-adv-x="1118" d="M41 412q0 203 122 324.5t378 121.5t377.5 -122t121.5 -324q0 -147 -63.5 -253t-196.5 -155l338 -287h-336l-286 248q-233 12 -344 133t-111 314zM272 412q0 -84 22.5 -135.5t59.5 -80t85 -39t102 -10.5q53 0 101 10.5t85 39t59.5 80t22.5 135.5q0 82 -22.5 134 t-59.5 81.5t-85 40t-101 10.5t-101.5 -10.5t-85.5 -40t-59.5 -81.5t-22.5 -134z" />
<glyph unicode="R" horiz-adv-x="1275" d="M82 0v823h762q61 0 115.5 -23.5t94.5 -63.5t63.5 -93t23.5 -115q0 -94 -52.5 -167.5t-132.5 -106.5l299 -254h-315l-266 231h-264l75 148q16 27 26.5 34t41.5 7h229q47 0 78 31.5t31 76.5t-31 77t-78 32h-395q-23 0 -38 -15.5t-15 -37.5v-584h-252z" />
<glyph unicode="S" horiz-adv-x="1169" d="M41 573q0 59 22.5 105.5t62.5 79.5t93 49t115 16h674l-76 -147q-16 -27 -26.5 -33t-41.5 -6h-524q-27 0 -45.5 -18.5t-18.5 -45.5t18.5 -45t45.5 -18h534q51 0 98.5 -18.5t81 -52t54 -80t20.5 -103.5t-20.5 -104.5t-54 -81t-80.5 -52t-99 -18.5h-2h-809l78 147 q16 29 26.5 35t41.5 6h616q29 0 48.5 19.5t19.5 48.5t-19.5 48.5t-48.5 19.5h-2h-489q-61 0 -114.5 16t-93.5 49t-62.5 79t-22.5 105z" />
<glyph unicode="T" horiz-adv-x="1114" d="M0 639l76 145q14 27 25.5 33t39.5 6h973l-76 -145q-16 -27 -26.5 -33t-40.5 -6h-236q-23 0 -38 -15.5t-15 -37.5v-586h-252v639h-430z" />
<glyph unicode="U" horiz-adv-x="1107" d="M51 377v446h234v-446q0 -72 18.5 -116t50 -68.5t72.5 -32.5t86 -8h84q45 0 87 8t73.5 32.5t50 68.5t18.5 116v446h232v-446q0 -186 -113 -299t-348 -113h-84q-119 0 -206 30t-143.5 83t-84 130t-27.5 169z" />
<glyph unicode="V" horiz-adv-x="1103" d="M20 823h261l274 -633l266 633h262q-92 -211 -165 -381q-31 -72 -62 -142.5t-55.5 -125.5t-41 -92t-18.5 -41q-12 -29 -24 -35t-43 -6h-283z" />
<glyph unicode="W" horiz-adv-x="1681" d="M20 823h240l234 -633l225 633h242l233 -633l225 633h242q-76 -211 -135 -381q-27 -72 -51.5 -142.5t-45 -125.5t-34 -92t-15.5 -41q-14 -29 -25.5 -35t-41.5 -6h-283l-186 494q-29 -78 -56.5 -156t-51 -142.5t-39 -106.5t-17.5 -48q-12 -29 -24.5 -35t-43.5 -6h-282z" />
<glyph unicode="X" horiz-adv-x="1157" d="M20 0l420 436l-368 387h282l234 -248l229 248h281l-367 -399l406 -424h-283l-270 285l-269 -285h-159h-136z" />
<glyph unicode="Y" horiz-adv-x="1064" d="M20 823h261l256 -350l247 350h260l-385 -524v-299h-253v315z" />
<glyph unicode="Z" horiz-adv-x="1126" d="M41 637l78 147q14 27 25.5 33t39.5 6h887v-186l-637 -449l651 -2l-77 -147q-16 -27 -26.5 -33t-41.5 -6h-895v186l649 451h-653z" />
<glyph unicode="&#xa0;" />
<glyph unicode="&#x2000;" horiz-adv-x="682" />
<glyph unicode="&#x2001;" horiz-adv-x="1365" />
<glyph unicode="&#x2002;" horiz-adv-x="682" />
<glyph unicode="&#x2003;" horiz-adv-x="1365" />
<glyph unicode="&#x2004;" horiz-adv-x="455" />
<glyph unicode="&#x2005;" horiz-adv-x="341" />
<glyph unicode="&#x2006;" horiz-adv-x="227" />
<glyph unicode="&#x2007;" horiz-adv-x="227" />
<glyph unicode="&#x2008;" horiz-adv-x="170" />
<glyph unicode="&#x2009;" horiz-adv-x="273" />
<glyph unicode="&#x200a;" horiz-adv-x="75" />
<glyph unicode="&#x202f;" horiz-adv-x="273" />
<glyph unicode="&#x205f;" horiz-adv-x="341" />
<glyph unicode="&#x25fc;" horiz-adv-x="1024" d="M0 0z" />
</font>
</defs>
</svg>
